<?xml version="1.0" encoding="UTF-8"?>
<svg
  xmlns="http://www.w3.org/2000/svg"
  viewBox="0 0 360 168.84"
  width="200"
  height="200">
  <defs>
    <style>
      .cls-1 { fill:#2774ae; }
      .cls-2 { fill:#ffffff; }
    </style>
  </defs>

  <title>UCLA Logo</title>

  <!-- Blue background -->
  <rect class="cls-1" width="360" height="168.84"/>

  <!-- “U” -->
  <path class="cls-2"
        d="M57.57,100.65
           a72.15,72.15 0 0 1 -0.18,-8.51
           l4.06,-46
           H76.52
           L72.39,92.54
           c-0.89,10   3,17.22  13.08,17.22
           c10.26,0   15.68,-7.29  16.57,-16.21
           l4.28,-47.44
           h15.06
           L117.21,93
           c-1.68,18 -13.64,31.54 -33,31.54
           c-15.08,0 -24.8,-9.75 -26.65,-23.85" />

  <!-- “C” -->
  <path class="cls-2"
        d="M124.84,85.07
           c2,-22.1 16.87,-40.42 42.62,-40.42
           a35.32,35.32 0 0 1 19.79,5.73
           l-1.72,18.25
           c-5.94,-7.81 -13,-9.08 -19.51,-9.08
           c-16,0 -24.81,11.13 -26.07,25.22
           c-1.21,13.71 5.87,24.87 21.39,24.87
           c6.78,0 14,-2 21.48,-9.47
           l-1.66,18.73
           c-7.33,4 -14.14,5.78 -21,5.78
           c-25.48,0 -37.15,-18.93 -35.32,-39.61" />

  <!-- “L” -->
  <path class="cls-2"
        d="M199.28,46.11
           h15
           l-5.48,62.5
           h21.53
           c1.52,0 6.65,-0.08 8,-0.16
           c-0.08,0.75 -1.37,14.44 -1.37,14.44
           H192.46Z" />

  <!-- “A” -->
  <path class="cls-2"
        d="M277.57,74.77
           a18,18 0 0 0 1.11,-3.22
           h0.24
           a18.25,18.25 0 0 0 0.57,3.25
           c0.83,3.5  6.68,22.94  6.68,22.94
           h-19
           s10.17,-22.46 10.37,-23

           M281.42,42.59
           l-1,0
           L239.27,122.87
           h16
           L261,110.71
           h29
           l3.62,12.18
           h15.93Z" />
</svg>
